<svg xmlns="http://www.w3.org/2000/svg" viewBox="0 0 321.17 344.08"><defs><style>.cls-1{fill:#f8ecea;}.cls-1,.cls-2,.cls-3,.cls-4,.cls-5,.cls-6{stroke:#000;stroke-linecap:round;stroke-linejoin:round;}.cls-1,.cls-2,.cls-3,.cls-4,.cls-5{stroke-width:3px;}.cls-2{fill:#efcd90;}.cls-3{fill:#bb8850;}.cls-4{fill:#e0b477;}.cls-5{fill:#c3ab9c;}.cls-6{fill:none;stroke-width:4px;}</style></defs><g id="Layer_2" data-name="Layer 2"><g id="Layer_1-2" data-name="Layer 1"><path class="cls-1" d="M252.8,55.23c-7.63,3.11-15.27,8.5-21.63,13.73-3.72,3.06-7.23,6.49-11.55,8.61-3.82,1.88-8.09,2.64-12.09,4.13a71.5,71.5,0,0,0-12.7,6.8c-12.72,7.93-25.57,15.65-38.42,23.38l-32.59,19.59c-4.12,2.48-8.24,4.95-12.45,7.26-4.59,2.51-9.57,4.94-14.43,7.07q-15.51-9.09-31.37-17.56c12.25-11.78,29.75-19.31,44.79-27.06,38.15-19.66,72-45.45,111-63.43Q237.09,46.45,252.8,55.23Z"/><path class="cls-2" d="M110.36,101.18c-15,7.75-32.54,15.28-44.79,27.06q-3.67-2-7.36-3.9c-2-1-3.9-2-5.86-3l-4.76-2.42q-2.64-1.35-5.3-2.67c-2.44-1.22-4.89-2.42-7.35-3.62-11.31-5.51-23-10.94-32-19.66A107.8,107.8,0,0,1,27.1,78.71c3.77-1.55,7.69-2.68,11.44-4.27,7.27-3.09,13.69-7.84,20.19-12.33a364.11,364.11,0,0,1,55.68-31.64,139.07,139.07,0,0,0,14.17-7c11.2-6.74,20.16-17.24,32.35-22,7.37,4.84,15.52,8.73,22.9,13.57,6.69,4.39,13.38,8.79,20.24,12.89,5.68,3.4,11.47,6.59,17.25,9.79C182.36,55.73,148.51,81.52,110.36,101.18Z"/><path class="cls-2" d="M315.53,91.6c-15.2,9.06-31,18.93-46.17,28a95.63,95.63,0,0,1-10.44,5.65c-5.08,2.22-10.64,3.61-15,7-2.35,1.81-4.27,4.14-6.7,5.84-3,2.07-6.53,3.08-9.83,4.57-6.42,2.91-11.83,7.62-17.39,12a189.35,189.35,0,0,1-55.17,29.77c-1.32-2.28-3.47-4.12-7.39-6.77q-10.66-7.22-21.53-14.14c-2.27-1.44-4.54-2.88-6.83-4.3-.39-.24-.77-.49-1.16-.72q-2.77-1.74-5.56-3.43l-1.26-.77q-3.41-2.08-6.84-4.13-3.63-2.19-7.29-4.32c4.86-2.13,9.84-4.56,14.43-7.07,4.21-2.31,8.33-4.78,12.45-7.26l32.59-19.59c12.85-7.73,25.7-15.45,38.42-23.38a71.5,71.5,0,0,1,12.7-6.8c4-1.49,8.27-2.25,12.09-4.13,4.32-2.12,7.83-5.55,11.55-8.61,6.36-5.23,14-10.62,21.63-13.73h0q24.29,13.55,48.56,27.08C306.45,85.13,312.5,87,315.53,91.6Z"/><path class="cls-3" d="M319.56,193q-1.05,28.71-2.09,57.43c-1,4.12-4.55,5.05-8.38,6.86s-8,2.72-11.91,4.38c-7.5,3.2-13.56,9.08-20.81,12.82-5.25,2.7-11,4.24-16.19,7.13-4.14,2.32-7.75,5.45-11.53,8.31a210.13,210.13,0,0,1-19.45,12.57l-22.54,13.43a98.47,98.47,0,0,1-15.18,7.89c-3.87,1.46-7.94,2.44-11.55,4.45-8,4.47-11.85,13.53-21,14.35-.36-10.38-.71-20.78-.18-31.15.46-8.91,1.56-17.82,1-26.72-.34-5.87-1.38-11.69-1.58-17.56s.46-11.9.91-17.84a255.18,255.18,0,0,0-1.73-54.55c-.7-5-1.16-7.94-2.59-10.38A189.35,189.35,0,0,0,210,154.61c5.56-4.33,11-9,17.39-12,3.3-1.49,6.86-2.5,9.83-4.57,2.43-1.7,4.35-4,6.7-5.84,4.39-3.4,10-4.79,15-7a95.63,95.63,0,0,0,10.44-5.65c15.19-9.06,31-18.93,46.17-28a11.16,11.16,0,0,1,1.15,2.26c2.27,6.09,1.72,14.06,1.41,20.43-.65,13.88-3.55,27.79-1.52,41.69.5,3.4,1.27,7-.08,10.18a15.18,15.18,0,0,0-1.31,3.16c-.33,2.05,1,3.94,1.95,5.79C319.93,180.5,319.78,186.89,319.56,193Z"/><path class="cls-4" d="M158.92,342.58a72.48,72.48,0,0,1-28.38-12.8c-3.87-2.92-7.42-6.23-11.29-9.14a137.27,137.27,0,0,0-15.18-9.49C70.83,292.36,36.82,273.28,3.59,254.48q.33-39,.67-78c.1-11.5.2-23-1.12-34.47-.67-5.76-1.69-11.51-1.64-17.31.1-10.81,3.43-21.13,1.42-31.75,9.06,8.72,20.71,14.15,32,19.66q15.47,7.53,30.63,15.64c-.56.53-1.11,1.08-1.64,1.63,0,9.86.3,20.82-1.12,30.58,3,2.86,6.76,4.86,10.43,6.84l5.9,3.16L95.06,179a218.47,218.47,0,0,0,.24-25.46,35.8,35.8,0,0,1,0-7l1.67-.72q14.63,8.56,28.94,17.67,10.86,6.92,21.53,14.14c3.92,2.65,6.07,4.49,7.39,6.77,1.43,2.44,1.89,5.39,2.59,10.38a255.18,255.18,0,0,1,1.73,54.55c-.45,5.94-1.11,11.88-.91,17.84s1.24,11.69,1.58,17.56c.51,8.9-.59,17.81-1,26.72C158.21,321.8,158.56,332.2,158.92,342.58Z"/><path class="cls-5" d="M95.3,153.54A218.47,218.47,0,0,1,95.06,179l-15.92-8.55-5.9-3.16c-3.67-2-7.4-4-10.43-6.84,1.42-9.76,1.15-20.72,1.12-30.58.53-.55,1.08-1.1,1.64-1.63q15.86,8.46,31.37,17.56l-1.67.72A35.8,35.8,0,0,0,95.3,153.54Z"/><line class="cls-6" x1="252.81" y1="55.23" x2="252.8" y2="55.23"/></g></g></svg>