<svg xmlns="http://www.w3.org/2000/svg" viewBox="0 0 28.5 27.5"><defs><style>.cls-1{fill:none;stroke:#3f3f3f;stroke-miterlimit:10;stroke-width:0.5px;}</style></defs><g id="Layer_2" data-name="Layer 2"><g id="Icons"><path class="cls-1" d="M27.25.25h-26a.94.94,0,0,0-1,1v19a.94.94,0,0,0,1,1h26a.94.94,0,0,0,1-1v-19A.94.94,0,0,0,27.25.25Zm-11,18h-4a1,1,0,0,1,0-2h4a1,1,0,0,1,0,2Z"/><path class="cls-1" d="M19,23.55a.91.91,0,0,0-.7-.3h-8a.91.91,0,0,0-.7.3l-2,2a.91.91,0,0,0-.2,1.1.87.87,0,0,0,.9.6h12a.87.87,0,0,0,.9-.6.91.91,0,0,0-.2-1.1Z"/></g></g></svg>