<?xml version="1.0" encoding="iso-8859-1"?>
<!-- Uploaded to: SVG Repo, www.svgrepo.com, Generator: SVG Repo Mixer Tools -->
<svg fill="#fff" height="800px" width="800px" version="1.1" id="Layer_1" xmlns="http://www.w3.org/2000/svg" xmlns:xlink="http://www.w3.org/1999/xlink" 
	 viewBox="0 0 512 512" xml:space="preserve">
<g>
	<g>
		<path d="M322.954,35.446c-104.407,0-189.046,28.214-189.046,63.015v206.672c-15.043-2.437-29.063-5.578-41.595-9.383
			c-32.829-9.963-43.339-20.83-44.927-24.015c2.215-4.904,18.095-17.153,55.014-26.804v-48.632C36.925,210.875,0,237.74,0,271.754
			C0,331.286,110.245,358.4,212.677,358.4c33.393,0,65.709-2.773,94.745-8.066c4.589,2.614,9.882,4.128,15.532,4.128
			c16.52,0,30.082-12.786,31.38-28.976c1.314,1.223,2.305,2.804,2.747,4.647l2.024,8.441c4.058,16.921-6.369,33.927-23.29,37.986
			c-36.415,8.732-78.996,13.348-123.138,13.348c-27.325,0-53.913-1.794-78.769-5.188v28.818c0,34.802,84.639,63.015,189.046,63.015
			S511.998,448.342,512,413.538V98.462C512,63.66,427.361,35.446,322.954,35.446z M322.954,161.477
			c-78.306,0-141.785-17.633-141.785-39.385c0-21.751,63.479-39.385,141.785-39.385s141.785,17.633,141.785,39.385
			C464.738,143.844,401.26,161.477,322.954,161.477z"/>
	</g>
</g>
</svg>