<svg id="Layer_1" data-name="Layer 1" xmlns="http://www.w3.org/2000/svg" viewBox="0 0 657.66 658.61"><defs><style>.cls-1{fill:#e5e5e5;stroke:#434a5f;stroke-linecap:round;stroke-linejoin:round;stroke-width:23px;}</style></defs><g id="Layer_2" data-name="Layer 2"><g id="invisible_box" data-name="invisible box"><path class="cls-1" d="M303.38,399.16V589.63a31.77,31.77,0,0,1-31.44,32.1,30.85,30.85,0,0,1-5.08-.36,33.34,33.34,0,0,1-27-33.33V475.35L71.63,643.59a31.72,31.72,0,0,1-22.22,9.53A28.57,28.57,0,0,1,25.6,642a31.76,31.76,0,0,1,3.17-44.45L195.44,430.9H82.74a33.32,33.32,0,0,1-33.33-27A31.72,31.72,0,0,1,76,367.77a30.85,30.85,0,0,1,5.17-.36H271.63A31.75,31.75,0,0,1,303.38,399.16Z" transform="translate(-6.5 -6.03)"/><path class="cls-1" d="M643.05,73.76,474.8,240.43H589.09a31.79,31.79,0,0,1,31.74,36.5,33.33,33.33,0,0,1-33.33,27H398.61a31.76,31.76,0,0,1-31.75-31.75V81.7A31.8,31.8,0,0,1,403.38,50a33.36,33.36,0,0,1,27,33.34V196L598.61,27.73a31.42,31.42,0,0,1,4.94-4.35,31.75,31.75,0,0,1,44.26,7.53A36.48,36.48,0,0,1,643.05,73.76Z" transform="translate(-6.5 -6.03)"/></g><g id="icons_Q2" data-name="icons Q2"><path class="cls-1" d="M303.38,399.16V589.63a31.77,31.77,0,0,1-31.44,32.1,30.85,30.85,0,0,1-5.08-.36,33.34,33.34,0,0,1-27-33.33V475.35L71.63,643.59a31.72,31.72,0,0,1-22.22,9.53A28.57,28.57,0,0,1,25.6,642a31.76,31.76,0,0,1,3.17-44.45L195.44,430.9H82.74a33.32,33.32,0,0,1-33.33-27A31.72,31.72,0,0,1,76,367.77a30.85,30.85,0,0,1,5.17-.36H271.63A31.75,31.75,0,0,1,303.38,399.16Z" transform="translate(-6.5 -6.03)"/><path class="cls-1" d="M643.05,73.76,474.8,240.43H589.09a31.79,31.79,0,0,1,31.74,36.5,33.33,33.33,0,0,1-33.33,27H398.61a31.76,31.76,0,0,1-31.75-31.75V81.7A31.8,31.8,0,0,1,403.38,50a33.36,33.36,0,0,1,27,33.34V196L598.61,27.73a31.42,31.42,0,0,1,4.94-4.35,31.75,31.75,0,0,1,44.26,7.53A36.48,36.48,0,0,1,643.05,73.76Z" transform="translate(-6.5 -6.03)"/></g></g></svg>