<?xml version="1.0" encoding="UTF-8"?>
<svg id="Layer_1" xmlns="http://www.w3.org/2000/svg" viewBox="0 0 657.66 657.66">
  <defs>
    <style>
      .cls-1 {
        fill: #e5e5e5;
        stroke: #434a5f;
        stroke-linecap: round;
        stroke-linejoin: round;
        stroke-width: 23px;
      }
    </style>
  </defs>
  <g id="Layer_2">
    <g id="icons_Q2">
      <path class="cls-1" d="M556.93,406.1c1.77-.97,3.63-1.73,5.57-2.26l79.34-21.64c5.76-35.35,5.76-71.4,0-106.75l-79.34-21.64c-13.82-3.81-21.94-18.11-18.12-31.93.54-1.94,1.29-3.81,2.26-5.57l40.38-72.12c-20-28.66-44.91-53.56-73.57-73.57l-72.12,40.38-11.54,2.89c-11.94.47-22.66-7.28-25.96-18.75l-21.64-79.34c-35.35-5.76-71.4-5.76-106.75,0l-21.64,79.34c-3.31,11.48-14.02,19.22-25.96,18.75l-11.54-2.89-72.12-40.38c-28.66,20-53.56,44.91-73.57,73.57l40.38,72.12c6.89,12.58,2.28,28.35-10.29,35.24-1.77.97-3.63,1.73-5.57,2.26l-79.34,21.64c-5.76,35.35-5.76,71.39,0,106.75l79.34,21.64c13.82,3.81,21.94,18.11,18.12,31.93-.54,1.94-1.29,3.81-2.26,5.57l-40.38,72.12c20,28.66,44.91,53.56,73.57,73.57l72.12-40.38,11.54-2.89c11.94-.47,22.66,7.28,25.96,18.75l21.64,79.34c35.35,5.76,71.39,5.76,106.75,0l21.64-79.34c3.31-11.48,14.02-19.22,25.96-18.75l11.54,2.89,72.12,40.38c28.66-20,53.56-44.91,73.57-73.57l-40.38-72.12c-6.89-12.58-2.28-28.35,10.29-35.24ZM328.83,458.65c-71.7,0-129.82-58.13-129.82-129.82s58.13-129.82,129.82-129.82,129.82,58.13,129.82,129.82-58.13,129.82-129.82,129.82Z"/>
    </g>
  </g>
</svg>