<svg id="Layer_1" data-name="Layer 1" xmlns="http://www.w3.org/2000/svg" viewBox="0 0 586.34 652.09"><defs><style>.cls-1{fill:#e5e5e5;stroke:#434a5f;stroke-linecap:round;stroke-linejoin:round;stroke-width:23px;}</style></defs><g id="Layer_2" data-name="Layer 2"><g id="invisible_box" data-name="invisible box"><path class="cls-1" d="M399.69,307,240.85,148.18,373,25.51a17.22,17.22,0,0,1,11-4.72A15.72,15.72,0,0,1,399.69,36.5h0Z" transform="translate(1.84 -9.29)"/><path class="cls-1" d="M563.25,609c-.58.63-1.18,1.24-1.81,1.81a29.86,29.86,0,0,1-42.2-1.79l0,0L399.69,489.46v144.7A15.72,15.72,0,0,1,384,649.88h0a17.22,17.22,0,0,1-11-4.72L190.51,476.88H53.68a31.45,31.45,0,0,1-31.45-31.45V225.24a31.45,31.45,0,0,1,31.45-31.45H104L15.94,105.72a31.46,31.46,0,0,1,44-44L563.25,565a16.69,16.69,0,0,1,2,1.89A29.83,29.83,0,0,1,563.27,609Z" transform="translate(1.84 -9.29)"/></g><g id="icons_Q2" data-name="icons Q2"><path class="cls-1" d="M399.69,36.51V307L240.85,148.18,373,25.51a17.22,17.22,0,0,1,11-4.72A15.72,15.72,0,0,1,399.69,36.5Z" transform="translate(1.84 -9.29)"/><path class="cls-1" d="M563.25,609c-.58.63-1.18,1.24-1.81,1.81a29.86,29.86,0,0,1-42.2-1.79l0,0L399.69,489.46v144.7A15.72,15.72,0,0,1,384,649.88h0a17.22,17.22,0,0,1-11-4.72L190.51,476.88H53.68a31.45,31.45,0,0,1-31.45-31.45V225.24a31.45,31.45,0,0,1,31.45-31.45H104L15.94,105.72a31.46,31.46,0,0,1,44-44L563.25,565a16.69,16.69,0,0,1,2,1.89A29.83,29.83,0,0,1,563.27,609Z" transform="translate(1.84 -9.29)"/></g></g></svg>