<svg id="Layer_1" data-name="Layer 1" xmlns="http://www.w3.org/2000/svg" viewBox="0 0 650.34 650.34"><defs><style>.cls-1{fill:#e5e5e5;stroke:#434a5f;stroke-linecap:round;stroke-linejoin:round;stroke-width:23px;}</style></defs><g id="Layer_2" data-name="Layer 2"><g id="invisible_box" data-name="invisible box"><path class="cls-1" d="M398.06,37.35v596A15.68,15.68,0,0,1,382.38,649h0a14.13,14.13,0,0,1-11-4.7L189.47,476.49H53a31.37,31.37,0,0,1-31.36-31.37V225.55A31.37,31.37,0,0,1,53,194.18H189.47L371.4,26.37a14.13,14.13,0,0,1,11-4.7,15.67,15.67,0,0,1,15.68,15.67Z" transform="translate(-10.16 -10.16)"/><path class="cls-1" d="M468.64,476.49a7.84,7.84,0,0,1-7.84-7.84h0V202a7.84,7.84,0,0,1,14.11-4.7,219.56,219.56,0,0,1,0,276A7.82,7.82,0,0,1,468.64,476.49Z" transform="translate(-10.16 -10.16)"/><path class="cls-1" d="M649,335.34a351.3,351.3,0,0,1-138,276,26.62,26.62,0,0,1-18.82,6.28,32.91,32.91,0,0,1-25.09-12.55,31.35,31.35,0,0,1,6.27-43.91c124.73-93.55,150-270.5,56.46-395.23a282.82,282.82,0,0,0-56.46-56.46A31.36,31.36,0,0,1,511,59.31,351.31,351.31,0,0,1,649,335.34Z" transform="translate(-10.16 -10.16)"/></g><g id="icons_Q2" data-name="icons Q2"><path class="cls-1" d="M398.06,37.35v596A15.68,15.68,0,0,1,382.38,649h0a14.13,14.13,0,0,1-11-4.7L189.47,476.49H53a31.37,31.37,0,0,1-31.36-31.37V225.55A31.37,31.37,0,0,1,53,194.18H189.47L371.4,26.37a14.13,14.13,0,0,1,11-4.7,15.67,15.67,0,0,1,15.68,15.67Z" transform="translate(-10.16 -10.16)"/><path class="cls-1" d="M649,335.34a351.3,351.3,0,0,1-138,276,26.62,26.62,0,0,1-18.82,6.28,32.91,32.91,0,0,1-25.09-12.55,31.35,31.35,0,0,1,6.27-43.91c124.73-93.55,150-270.5,56.46-395.23a282.82,282.82,0,0,0-56.46-56.46A31.36,31.36,0,0,1,511,59.31,351.31,351.31,0,0,1,649,335.34Z" transform="translate(-10.16 -10.16)"/><path class="cls-1" d="M474.91,473.35a7.84,7.84,0,0,1-14.11-4.7V202a7.84,7.84,0,0,1,14.11-4.7A219.56,219.56,0,0,1,474.91,473.35Z" transform="translate(-10.16 -10.16)"/></g></g></svg>